<svg width="16" height="16" viewBox="0 0 16 16" fill="none" xmlns="http://www.w3.org/2000/svg">
<path fill-rule="evenodd" clip-rule="evenodd" d="M-1.16563e-07 1.33333L5.2325 1.33333C5.4905 0.5574 6.18522 -2.70365e-07 7 -3.0598e-07C7.81478 -3.41595e-07 8.5095 0.5574 8.7675 1.33333L16 1.33333L16 2.66667L8.7675 2.66667C8.5095 3.4426 7.81478 4 7 4C6.18522 4 5.4905 3.4426 5.2325 2.66667L-5.82819e-08 2.66667L-1.16563e-07 1.33333ZM7 2.6665C7.34462 2.6665 7.625 2.36744 7.625 1.99984C7.625 1.63224 7.34462 1.33317 7 1.33317C6.65537 1.33317 6.375 1.63224 6.375 1.99984C6.375 2.36744 6.65537 2.6665 7 2.6665Z" fill="#A8A8A8"/>
<path fill-rule="evenodd" clip-rule="evenodd" d="M-1.16563e-07 7.33333L8.7325 7.33333C8.9905 6.5574 9.68522 6 10.5 6C11.3148 6 12.0095 6.5574 12.2675 7.33333L16 7.33333L16 8.66667L12.2675 8.66667C12.0095 9.4426 11.3148 10 10.5 10C9.68522 10 8.9905 9.4426 8.7325 8.66667L-5.82819e-08 8.66667L-1.16563e-07 7.33333ZM10.5 8.6665C10.8446 8.6665 11.125 8.36744 11.125 7.99984C11.125 7.63224 10.8446 7.33317 10.5 7.33317C10.1554 7.33317 9.875 7.63224 9.875 7.99984C9.875 8.36744 10.1554 8.6665 10.5 8.6665Z" fill="#A8A8A8"/>
<path fill-rule="evenodd" clip-rule="evenodd" d="M-1.16563e-07 13.3333L2.7325 13.3333C2.9905 12.5574 3.68522 12 4.5 12C5.31478 12 6.0095 12.5574 6.2675 13.3333L16 13.3333L16 14.6667L6.2675 14.6667C6.0095 15.4426 5.31478 16 4.5 16C3.68522 16 2.9905 15.4426 2.7325 14.6667L-5.82819e-08 14.6667L-1.16563e-07 13.3333ZM4.5 14.6665C4.84462 14.6665 5.125 14.3674 5.125 13.9998C5.125 13.6322 4.84462 13.3332 4.5 13.3332C4.15537 13.3332 3.875 13.6322 3.875 13.9998C3.875 14.3674 4.15537 14.6665 4.5 14.6665Z" fill="#A8A8A8"/>
</svg>
