<?xml version="1.0" encoding="utf-8"?>
<!-- Generator: Adobe Illustrator 25.2.1, SVG Export Plug-In . SVG Version: 6.00 Build 0)  -->
<svg version="1.1" id="Layer_1" xmlns="http://www.w3.org/2000/svg" xmlns:xlink="http://www.w3.org/1999/xlink" x="0px" y="0px"
	 viewBox="0 0 341.5 400" style="enable-background:new 0 0 341.5 400;" xml:space="preserve">
<style type="text/css">
	.st0{fill:url(#SVGID_1_);}
	.st1{fill:url(#SVGID_2_);}
	.st2{fill:url(#SVGID_3_);}
	.st3{fill:url(#SVGID_4_);}
	.st4{fill:url(#SVGID_5_);}
	.st5{fill:url(#SVGID_6_);}
	.st6{fill:url(#SVGID_7_);}
	.st7{fill:url(#SVGID_8_);}
	.st8{fill:url(#SVGID_9_);}
	.st9{fill:#1B4E8D;}
	.st10{fill:url(#SVGID_10_);}
	.st11{fill:url(#SVGID_11_);}
	.st12{fill:url(#SVGID_12_);}
	.st13{fill:url(#SVGID_13_);}
	.st14{fill:#182852;}
	.st15{fill:url(#SVGID_14_);}
	.st16{fill:url(#SVGID_15_);}
	.st17{fill:url(#SVGID_16_);}
	.st18{fill:url(#SVGID_17_);}
	.st19{fill:url(#SVGID_18_);}
	.st20{fill:url(#SVGID_19_);}
	.st21{fill:url(#SVGID_20_);}
	.st22{fill:url(#SVGID_21_);}
	.st23{fill:url(#SVGID_22_);}
	.st24{fill:url(#SVGID_23_);}
	.st25{fill:url(#SVGID_24_);}
	.st26{fill:url(#SVGID_25_);}
</style>
<g>
	
		<linearGradient id="SVGID_1_" gradientUnits="userSpaceOnUse" x1="2692.7266" y1="-1421.7347" x2="2692.7266" y2="-1913.3547" gradientTransform="matrix(0.7071 0.7071 0.7071 -0.7071 -505.8906 -2874.3921)">
		<stop  offset="1.221960e-03" style="stop-color:#FF00B7"/>
		<stop  offset="0.9988" style="stop-color:#4F00FF"/>
	</linearGradient>
	<path class="st0" d="M240.1,187.9c0-0.1-0.1-0.2-0.1-0.3C240.1,187.6,240.1,187.7,240.1,187.9z"/>
	
		<linearGradient id="SVGID_2_" gradientUnits="userSpaceOnUse" x1="2697.5115" y1="-1421.7347" x2="2697.5115" y2="-1913.3547" gradientTransform="matrix(0.7071 0.7071 0.7071 -0.7071 -505.8906 -2874.3921)">
		<stop  offset="1.221960e-03" style="stop-color:#FF00B7"/>
		<stop  offset="0.9988" style="stop-color:#4F00FF"/>
	</linearGradient>
	<path class="st1" d="M240.7,194.1c0-0.1,0-0.3,0-0.4C240.7,193.8,240.7,193.9,240.7,194.1z"/>
	
		<linearGradient id="SVGID_3_" gradientUnits="userSpaceOnUse" x1="2701.4561" y1="-1421.7347" x2="2701.4561" y2="-1913.3547" gradientTransform="matrix(0.7071 0.7071 0.7071 -0.7071 -505.8906 -2874.3921)">
		<stop  offset="1.221960e-03" style="stop-color:#FF00B7"/>
		<stop  offset="0.9988" style="stop-color:#4F00FF"/>
	</linearGradient>
	<path class="st2" d="M238.6,201.8c0.1-0.3,0.3-0.6,0.4-0.9C238.8,201.2,238.7,201.5,238.6,201.8z"/>
	
		<linearGradient id="SVGID_4_" gradientUnits="userSpaceOnUse" x1="2699.5571" y1="-1421.7347" x2="2699.5571" y2="-1913.3547" gradientTransform="matrix(0.7071 0.7071 0.7071 -0.7071 -505.8906 -2874.3921)">
		<stop  offset="1.221960e-03" style="stop-color:#FF00B7"/>
		<stop  offset="0.9988" style="stop-color:#4F00FF"/>
	</linearGradient>
	<path class="st3" d="M240.1,197.5c0-0.2,0.1-0.4,0.1-0.6C240.2,197.1,240.2,197.3,240.1,197.5z"/>
	
		<linearGradient id="SVGID_5_" gradientUnits="userSpaceOnUse" x1="2691.2437" y1="-1421.7347" x2="2691.2437" y2="-1913.3547" gradientTransform="matrix(0.7071 0.7071 0.7071 -0.7071 -505.8906 -2874.3921)">
		<stop  offset="1.221960e-03" style="stop-color:#FF00B7"/>
		<stop  offset="0.9988" style="stop-color:#4F00FF"/>
	</linearGradient>
	<path class="st4" d="M239.7,186.3c0-0.1-0.1-0.3-0.2-0.4C239.6,186,239.6,186.1,239.7,186.3z"/>
	
		<linearGradient id="SVGID_6_" gradientUnits="userSpaceOnUse" x1="2698.5793" y1="-1421.7347" x2="2698.5793" y2="-1913.3547" gradientTransform="matrix(0.7071 0.7071 0.7071 -0.7071 -505.8906 -2874.3921)">
		<stop  offset="1.221960e-03" style="stop-color:#FF00B7"/>
		<stop  offset="0.9988" style="stop-color:#4F00FF"/>
	</linearGradient>
	<path class="st5" d="M240.5,195.8c0-0.2,0.1-0.4,0.1-0.5C240.5,195.4,240.5,195.6,240.5,195.8z"/>
	
		<linearGradient id="SVGID_7_" gradientUnits="userSpaceOnUse" x1="2701.9895" y1="-1421.7347" x2="2701.9895" y2="-1913.3547" gradientTransform="matrix(0.7071 0.7071 0.7071 -0.7071 -505.8906 -2874.3921)">
		<stop  offset="1.221960e-03" style="stop-color:#FF00B7"/>
		<stop  offset="0.9988" style="stop-color:#4F00FF"/>
	</linearGradient>
	<path class="st6" d="M237.6,203.4c0.2-0.3,0.4-0.6,0.5-0.9C238,202.8,237.8,203.1,237.6,203.4z"/>
	
		<linearGradient id="SVGID_8_" gradientUnits="userSpaceOnUse" x1="2704.7979" y1="-1421.7347" x2="2704.7979" y2="-1913.3547" gradientTransform="matrix(0.7071 0.7071 0.7071 -0.7071 -505.8906 -2874.3921)">
		<stop  offset="1.221960e-03" style="stop-color:#FF00B7"/>
		<stop  offset="0.9988" style="stop-color:#4F00FF"/>
	</linearGradient>
	<path class="st7" d="M133.2,308.6l2.6-2.6l-8,8c-5,5-8.9,11-11.4,17.5c2.5-6.5,6.3-12.4,11.4-17.5L133.2,308.6z"/>
	
		<linearGradient id="SVGID_9_" gradientUnits="userSpaceOnUse" x1="2702.5891" y1="-1421.7347" x2="2702.5891" y2="-1913.3547" gradientTransform="matrix(0.7071 0.7071 0.7071 -0.7071 -505.8906 -2874.3921)">
		<stop  offset="1.221960e-03" style="stop-color:#FF00B7"/>
		<stop  offset="0.9988" style="stop-color:#4F00FF"/>
	</linearGradient>
	<path class="st8" d="M234.8,207c0.5-0.5,0.9-0.9,1.3-1.4C235.7,206,235.3,206.5,234.8,207z"/>
	<path class="st9" d="M226.9,102.6c-18.3,20.1-16.5,51.3,2.7,70.5l5.3,5.3c1.4,1.4,2.6,3,3.5,4.7c43.1,47.4,41.8,121.1-4,166.9
		l71.8-71.8c47.2-47.2,47.2-123.8,0-171.1l-6.3-6.3C279.6,80.6,246.4,81.2,226.9,102.6z"/>
	
		<linearGradient id="SVGID_10_" gradientUnits="userSpaceOnUse" x1="2700.8254" y1="-1421.7347" x2="2700.8254" y2="-1913.3547" gradientTransform="matrix(0.7071 0.7071 0.7071 -0.7071 -505.8906 -2874.3921)">
		<stop  offset="1.221960e-03" style="stop-color:#FF00B7"/>
		<stop  offset="0.9988" style="stop-color:#4F00FF"/>
	</linearGradient>
	<path class="st10" d="M239.3,200.1c0.1-0.2,0.2-0.4,0.2-0.7C239.5,199.7,239.4,199.9,239.3,200.1z"/>
	
		<linearGradient id="SVGID_11_" gradientUnits="userSpaceOnUse" x1="2689.6809" y1="-1421.7347" x2="2689.6809" y2="-1913.3547" gradientTransform="matrix(0.7071 0.7071 0.7071 -0.7071 -505.8906 -2874.3921)">
		<stop  offset="1.221960e-03" style="stop-color:#FF00B7"/>
		<stop  offset="0.9988" style="stop-color:#4F00FF"/>
	</linearGradient>
	<path class="st11" d="M239.1,184.7c-0.1-0.1-0.1-0.3-0.2-0.4C238.9,184.4,239,184.5,239.1,184.7z"/>
	
		<linearGradient id="SVGID_12_" gradientUnits="userSpaceOnUse" x1="2702.3704" y1="-1421.7347" x2="2702.3704" y2="-1913.3547" gradientTransform="matrix(0.7071 0.7071 0.7071 -0.7071 -505.8906 -2874.3921)">
		<stop  offset="1.221960e-03" style="stop-color:#FF00B7"/>
		<stop  offset="0.9988" style="stop-color:#4F00FF"/>
	</linearGradient>
	<path class="st12" d="M236.5,205c0.3-0.3,0.5-0.6,0.7-1C237,204.4,236.7,204.7,236.5,205z"/>
	<path class="st9" d="M237.2,204.1c0.1-0.2,0.3-0.4,0.4-0.6C237.5,203.6,237.4,203.9,237.2,204.1z"/>
	<path class="st9" d="M236.1,205.5c0.1-0.2,0.3-0.3,0.4-0.5C236.4,205.2,236.2,205.4,236.1,205.5z"/>
	<path class="st9" d="M238.2,202.5c0.1-0.2,0.3-0.5,0.4-0.7C238.4,202,238.3,202.3,238.2,202.5z"/>
	<path class="st9" d="M239,200.9c0.1-0.3,0.2-0.5,0.3-0.8C239.2,200.4,239.1,200.6,239,200.9z"/>
	<path class="st9" d="M115.3,334.8c0.3-1.1,0.7-2.2,1.2-3.3C116,332.5,115.6,333.6,115.3,334.8z"/>
	<path class="st9" d="M238.3,183.1c0.2,0.4,0.4,0.8,0.6,1.1C238.7,183.9,238.5,183.5,238.3,183.1
		C238.3,183.1,238.3,183.1,238.3,183.1z"/>
	<path class="st9" d="M240.1,187.9c0.5,1.9,0.7,3.8,0.6,5.8C240.8,191.7,240.6,189.8,240.1,187.9z"/>
	<path class="st9" d="M239.6,199.5c0.2-0.6,0.4-1.3,0.6-1.9C240,198.2,239.8,198.8,239.6,199.5z"/>
	<path class="st9" d="M239.5,185.9c-0.1-0.4-0.3-0.8-0.5-1.2C239.2,185.1,239.4,185.5,239.5,185.9z"/>
	<path class="st9" d="M240.6,195.3c0.1-0.4,0.1-0.8,0.1-1.2C240.6,194.5,240.6,194.9,240.6,195.3z"/>
	<path class="st9" d="M240.3,196.9c0.1-0.4,0.1-0.8,0.2-1.1C240.4,196.2,240.4,196.6,240.3,196.9z"/>
	<path class="st9" d="M240,187.5c-0.1-0.4-0.2-0.8-0.4-1.2C239.8,186.7,239.9,187.1,240,187.5z"/>
	
		<linearGradient id="SVGID_13_" gradientUnits="userSpaceOnUse" x1="2745.8594" y1="-1421.7347" x2="2745.8594" y2="-1913.3547" gradientTransform="matrix(0.7071 0.7071 0.7071 -0.7071 -505.8906 -2874.3921)">
		<stop  offset="1.221960e-03" style="stop-color:#FF00B7"/>
		<stop  offset="0.9988" style="stop-color:#4F00FF"/>
	</linearGradient>
	<path class="st13" d="M238.3,183.2c0.2,0.4,0.4,0.8,0.5,1.1c0.1,0.1,0.1,0.3,0.2,0.4c0.2,0.4,0.3,0.8,0.5,1.2
		c0.1,0.1,0.1,0.3,0.2,0.4c0.1,0.4,0.3,0.8,0.4,1.2c0,0.1,0.1,0.2,0.1,0.3c0.5,1.9,0.7,3.8,0.6,5.8c0,0.1,0,0.3,0,0.4
		c0,0.4-0.1,0.8-0.1,1.2c0,0.2,0,0.4-0.1,0.5c-0.1,0.4-0.1,0.8-0.2,1.1c0,0.2-0.1,0.4-0.1,0.6c-0.2,0.7-0.4,1.3-0.6,1.9
		c-0.1,0.2-0.1,0.5-0.2,0.7c-0.1,0.3-0.2,0.5-0.3,0.8c-0.1,0.3-0.3,0.6-0.4,0.9c-0.1,0.2-0.3,0.5-0.4,0.7c-0.2,0.3-0.4,0.6-0.5,0.9
		c-0.1,0.2-0.3,0.4-0.4,0.6c-0.2,0.3-0.5,0.7-0.7,1c-0.1,0.2-0.3,0.3-0.4,0.5c-0.4,0.5-0.8,1-1.3,1.4l-71.8,71.8l-27.2,27.2
		l-2.6,2.6l-5.4,5.4c-5,5-8.9,11-11.4,17.5c-0.4,1.1-0.8,2.2-1.2,3.3c-1.9,6-2.6,12.4-2.1,18.9c1.6,19.6,14.4,36.5,32.8,43.3
		c18.4,6.8,39.1,2.2,53-11.7l35.2-35.2C280.1,304.2,281.4,230.6,238.3,183.2z"/>
	<path class="st14" d="M238.3,183.2c0.2,0.4,0.4,0.8,0.5,1.1c0.1,0.1,0.1,0.3,0.2,0.4c0.2,0.4,0.3,0.8,0.5,1.2
		c0.1,0.1,0.1,0.3,0.2,0.4c0.1,0.4,0.3,0.8,0.4,1.2c0,0.1,0.1,0.2,0.1,0.3c0.5,1.9,0.7,3.8,0.6,5.8c0,0.1,0,0.3,0,0.4
		c0,0.4-0.1,0.8-0.1,1.2c0,0.2,0,0.4-0.1,0.5c-0.1,0.4-0.1,0.8-0.2,1.1c0,0.2-0.1,0.4-0.1,0.6c-0.2,0.7-0.4,1.3-0.6,1.9
		c-0.1,0.2-0.1,0.5-0.2,0.7c-0.1,0.3-0.2,0.5-0.3,0.8c-0.1,0.3-0.3,0.6-0.4,0.9c-0.1,0.2-0.3,0.5-0.4,0.7c-0.2,0.3-0.4,0.6-0.5,0.9
		c-0.1,0.2-0.3,0.4-0.4,0.6c-0.2,0.3-0.5,0.7-0.7,1c-0.1,0.2-0.3,0.3-0.4,0.5c-0.4,0.5-0.8,1-1.3,1.4l-71.8,71.8l-27.2,27.2
		l-2.6,2.6l-5.4,5.4c-5,5-8.9,11-11.4,17.5c-0.4,1.1-0.8,2.2-1.2,3.3c-1.9,6-2.6,12.4-2.1,18.9c1.6,19.6,14.4,36.5,32.8,43.3
		c18.4,6.8,39.1,2.2,53-11.7l35.2-35.2C280.1,304.2,281.4,230.6,238.3,183.2z"/>
	
		<linearGradient id="SVGID_14_" gradientUnits="userSpaceOnUse" x1="-1938.1577" y1="1890.141" x2="-1938.1577" y2="1398.5205" gradientTransform="matrix(-0.7071 -0.7071 -0.7071 0.7071 -90.0732 -2346.762)">
		<stop  offset="1.221960e-03" style="stop-color:#FF00B7"/>
		<stop  offset="0.9988" style="stop-color:#4F00FF"/>
	</linearGradient>
	<path class="st15" d="M101.4,202.5c0,0.2-0.1,0.4-0.1,0.6C101.3,202.9,101.4,202.7,101.4,202.5z"/>
	
		<linearGradient id="SVGID_15_" gradientUnits="userSpaceOnUse" x1="-1940.2015" y1="1890.141" x2="-1940.2015" y2="1398.5205" gradientTransform="matrix(-0.7071 -0.7071 -0.7071 0.7071 -90.0732 -2346.762)">
		<stop  offset="1.221960e-03" style="stop-color:#FF00B7"/>
		<stop  offset="0.9988" style="stop-color:#4F00FF"/>
	</linearGradient>
	<path class="st16" d="M100.9,205.9c0,0.1,0,0.3,0,0.4C100.8,206.2,100.9,206.1,100.9,205.9z"/>
	
		<linearGradient id="SVGID_16_" gradientUnits="userSpaceOnUse" x1="-1936.8649" y1="1890.141" x2="-1936.8649" y2="1398.5205" gradientTransform="matrix(-0.7071 -0.7071 -0.7071 0.7071 -90.0732 -2346.762)">
		<stop  offset="1.221960e-03" style="stop-color:#FF00B7"/>
		<stop  offset="0.9988" style="stop-color:#4F00FF"/>
	</linearGradient>
	<path class="st17" d="M102.2,199.9c-0.1,0.2-0.1,0.4-0.2,0.6C102.1,200.3,102.1,200.1,102.2,199.9z"/>
	
		<linearGradient id="SVGID_17_" gradientUnits="userSpaceOnUse" x1="-1939.1338" y1="1890.141" x2="-1939.1338" y2="1398.5205" gradientTransform="matrix(-0.7071 -0.7071 -0.7071 0.7071 -90.0732 -2346.762)">
		<stop  offset="1.221960e-03" style="stop-color:#FF00B7"/>
		<stop  offset="0.9988" style="stop-color:#4F00FF"/>
	</linearGradient>
	<path class="st18" d="M101.1,204.2c0,0.2-0.1,0.4-0.1,0.5C101,204.6,101,204.4,101.1,204.2z"/>
	
		<linearGradient id="SVGID_18_" gradientUnits="userSpaceOnUse" x1="-1936.2567" y1="1890.141" x2="-1936.2567" y2="1398.5205" gradientTransform="matrix(-0.7071 -0.7071 -0.7071 0.7071 -90.0732 -2346.762)">
		<stop  offset="1.221960e-03" style="stop-color:#FF00B7"/>
		<stop  offset="0.9988" style="stop-color:#4F00FF"/>
	</linearGradient>
	<path class="st19" d="M103,198.2c-0.1,0.3-0.3,0.6-0.4,0.9C102.7,198.8,102.8,198.5,103,198.2z"/>
	
		<linearGradient id="SVGID_19_" gradientUnits="userSpaceOnUse" x1="-1944.9878" y1="1890.141" x2="-1944.9878" y2="1398.5205" gradientTransform="matrix(-0.7071 -0.7071 -0.7071 0.7071 -90.0732 -2346.762)">
		<stop  offset="1.221960e-03" style="stop-color:#FF00B7"/>
		<stop  offset="0.9988" style="stop-color:#4F00FF"/>
	</linearGradient>
	<path class="st20" d="M101.4,212.2c0,0.1,0.1,0.2,0.1,0.3C101.5,212.4,101.4,212.3,101.4,212.2z"/>
	
		<linearGradient id="SVGID_20_" gradientUnits="userSpaceOnUse" x1="-1935.3433" y1="1890.141" x2="-1935.3433" y2="1398.5205" gradientTransform="matrix(-0.7071 -0.7071 -0.7071 0.7071 -90.0732 -2346.762)">
		<stop  offset="1.221960e-03" style="stop-color:#FF00B7"/>
		<stop  offset="0.9988" style="stop-color:#4F00FF"/>
	</linearGradient>
	<path class="st21" d="M105,195c-0.2,0.3-0.5,0.6-0.7,1C104.5,195.6,104.8,195.3,105,195z"/>
	
		<linearGradient id="SVGID_21_" gradientUnits="userSpaceOnUse" x1="-1935.724" y1="1890.141" x2="-1935.724" y2="1398.5205" gradientTransform="matrix(-0.7071 -0.7071 -0.7071 0.7071 -90.0732 -2346.762)">
		<stop  offset="1.221960e-03" style="stop-color:#FF00B7"/>
		<stop  offset="0.9988" style="stop-color:#4F00FF"/>
	</linearGradient>
	<path class="st22" d="M103.9,196.6c-0.2,0.3-0.4,0.6-0.5,0.9C103.5,197.2,103.7,196.9,103.9,196.6z"/>
	
		<linearGradient id="SVGID_22_" gradientUnits="userSpaceOnUse" x1="-1935.124" y1="1890.141" x2="-1935.124" y2="1398.5205" gradientTransform="matrix(-0.7071 -0.7071 -0.7071 0.7071 -90.0732 -2346.762)">
		<stop  offset="1.221960e-03" style="stop-color:#FF00B7"/>
		<stop  offset="0.9988" style="stop-color:#4F00FF"/>
	</linearGradient>
	<path class="st23" d="M106.7,193c-0.5,0.5-0.9,0.9-1.3,1.4C105.8,194,106.3,193.5,106.7,193z"/>
	
		<linearGradient id="SVGID_23_" gradientUnits="userSpaceOnUse" x1="-1948.0345" y1="1890.141" x2="-1948.0345" y2="1398.5205" gradientTransform="matrix(-0.7071 -0.7071 -0.7071 0.7071 -90.0732 -2346.762)">
		<stop  offset="1.221960e-03" style="stop-color:#FF00B7"/>
		<stop  offset="0.9988" style="stop-color:#4F00FF"/>
	</linearGradient>
	<path class="st24" d="M102.5,215.3c0.1,0.1,0.1,0.3,0.2,0.4C102.6,215.6,102.5,215.5,102.5,215.3z"/>
	<path class="st9" d="M114.6,297.4c18.3-20.1,16.5-51.3-2.7-70.5l-5.3-5.3c-1.4-1.4-2.6-3-3.5-4.7c-43.1-47.4-41.8-121.1,4-166.9
		l35.2-35.2l-107,107c-47.2,47.2-47.2,123.8,0,171.1l6.3,6.3C61.9,319.4,95.1,318.8,114.6,297.4z"/>
	
		<linearGradient id="SVGID_24_" gradientUnits="userSpaceOnUse" x1="-1946.4701" y1="1890.141" x2="-1946.4701" y2="1398.5205" gradientTransform="matrix(-0.7071 -0.7071 -0.7071 0.7071 -90.0732 -2346.762)">
		<stop  offset="1.221960e-03" style="stop-color:#FF00B7"/>
		<stop  offset="0.9988" style="stop-color:#4F00FF"/>
	</linearGradient>
	<path class="st25" d="M101.9,213.7c0,0.1,0.1,0.3,0.2,0.4C102,214,101.9,213.9,101.9,213.7z"/>
	<path class="st9" d="M104.3,195.9c-0.1,0.2-0.3,0.4-0.4,0.6C104,196.4,104.2,196.1,104.3,195.9z"/>
	<path class="st9" d="M101.4,212.2c-0.5-1.9-0.7-3.9-0.6-5.8C100.7,208.3,100.9,210.2,101.4,212.2z"/>
	<path class="st9" d="M103.4,197.5c-0.1,0.2-0.3,0.5-0.4,0.7C103.1,198,103.2,197.7,103.4,197.5z"/>
	<path class="st9" d="M208.3,91.4l5.4-5.4c6.5-6.5,11.1-14.6,13.3-23.4c-2.2,8.8-6.7,16.9-13.3,23.4L208.3,91.4z"/>
	<path class="st9" d="M105.4,194.5c-0.1,0.2-0.3,0.3-0.4,0.5C105.2,194.8,105.3,194.6,105.4,194.5z"/>
	<path class="st9" d="M101.5,212.5c0.1,0.4,0.2,0.8,0.4,1.2C101.7,213.3,101.6,212.9,101.5,212.5z"/>
	<path class="st9" d="M102,214.1c0.1,0.4,0.3,0.8,0.5,1.2C102.3,214.9,102.1,214.5,102,214.1z"/>
	<path class="st9" d="M228.3,54.6c-0.2,1.8-0.4,3.6-0.7,5.4C227.9,58.2,228.2,56.4,228.3,54.6z"/>
	<path class="st9" d="M101,204.7c-0.1,0.4-0.1,0.8-0.1,1.2C100.9,205.5,100.9,205.1,101,204.7z"/>
	<path class="st9" d="M101.3,203.1c-0.1,0.4-0.1,0.8-0.2,1.1C101.1,203.8,101.2,203.4,101.3,203.1z"/>
	<path class="st9" d="M102.6,199.1c-0.1,0.3-0.2,0.5-0.3,0.8C102.3,199.6,102.4,199.4,102.6,199.1z"/>
	<path class="st9" d="M102,200.4c-0.2,0.7-0.4,1.4-0.6,2C101.6,201.8,101.8,201.1,102,200.4z"/>
	<path class="st9" d="M103.2,216.9c-0.2-0.4-0.4-0.8-0.6-1.1C102.8,216.1,103,216.5,103.2,216.9
		C103.2,216.9,103.2,216.9,103.2,216.9z"/>
	
		<linearGradient id="SVGID_25_" gradientUnits="userSpaceOnUse" x1="-1891.8546" y1="1890.141" x2="-1891.8546" y2="1398.5205" gradientTransform="matrix(-0.7071 -0.7071 -0.7071 0.7071 -90.0732 -2346.762)">
		<stop  offset="1.221960e-03" style="stop-color:#FF00B7"/>
		<stop  offset="0.9988" style="stop-color:#4F00FF"/>
	</linearGradient>
	<path class="st26" d="M103.2,216.9c-0.2-0.4-0.4-0.7-0.5-1.1c-0.1-0.1-0.1-0.3-0.2-0.4c-0.2-0.4-0.3-0.8-0.5-1.2
		c-0.1-0.1-0.1-0.3-0.2-0.4c-0.1-0.4-0.3-0.8-0.4-1.2c0-0.1-0.1-0.2-0.1-0.3c-0.5-1.9-0.7-3.9-0.6-5.8c0-0.1,0-0.3,0-0.4
		c0-0.4,0.1-0.8,0.1-1.2c0-0.2,0-0.4,0.1-0.5c0.1-0.4,0.1-0.8,0.2-1.1c0-0.2,0.1-0.4,0.1-0.6c0.2-0.7,0.4-1.4,0.6-2
		c0.1-0.2,0.1-0.4,0.2-0.6c0.1-0.3,0.2-0.5,0.3-0.8c0.1-0.3,0.3-0.6,0.4-0.9c0.1-0.2,0.3-0.5,0.4-0.7c0.2-0.3,0.4-0.6,0.5-0.9
		c0.1-0.2,0.3-0.4,0.4-0.6c0.2-0.3,0.5-0.7,0.7-1c0.1-0.2,0.3-0.3,0.4-0.5c0.4-0.5,0.8-1,1.3-1.4l71.8-71.8l27.2-27.2l2.6-2.6
		l5.4-5.4c6.5-6.5,11.1-14.6,13.3-23.4c0.2-0.9,0.4-1.8,0.6-2.6c0.3-1.8,0.6-3.6,0.7-5.4c0.2-2.7,0.2-5.5,0-8.2
		c-1.6-19.6-14.4-36.5-32.8-43.3c-18.4-6.8-39.1-2.2-53,11.7L107.2,50C61.4,95.8,60.1,169.4,103.2,216.9z"/>
	<path class="st14" d="M103.2,216.9c-0.2-0.4-0.4-0.7-0.5-1.1c-0.1-0.1-0.1-0.3-0.2-0.4c-0.2-0.4-0.3-0.8-0.5-1.2
		c-0.1-0.1-0.1-0.3-0.2-0.4c-0.1-0.4-0.3-0.8-0.4-1.2c0-0.1-0.1-0.2-0.1-0.3c-0.5-1.9-0.7-3.9-0.6-5.8c0-0.1,0-0.3,0-0.4
		c0-0.4,0.1-0.8,0.1-1.2c0-0.2,0-0.4,0.1-0.5c0.1-0.4,0.1-0.8,0.2-1.1c0-0.2,0.1-0.4,0.1-0.6c0.2-0.7,0.4-1.4,0.6-2
		c0.1-0.2,0.1-0.4,0.2-0.6c0.1-0.3,0.2-0.5,0.3-0.8c0.1-0.3,0.3-0.6,0.4-0.9c0.1-0.2,0.3-0.5,0.4-0.7c0.2-0.3,0.4-0.6,0.5-0.9
		c0.1-0.2,0.3-0.4,0.4-0.6c0.2-0.3,0.5-0.7,0.7-1c0.1-0.2,0.3-0.3,0.4-0.5c0.4-0.5,0.8-1,1.3-1.4l71.8-71.8l27.2-27.2l2.6-2.6
		l5.4-5.4c6.5-6.5,11.1-14.6,13.3-23.4c0.2-0.9,0.4-1.8,0.6-2.6c0.3-1.8,0.6-3.6,0.7-5.4c0.2-2.7,0.2-5.5,0-8.2
		c-1.6-19.6-14.4-36.5-32.8-43.3c-18.4-6.8-39.1-2.2-53,11.7L107.2,50C61.4,95.8,60.1,169.4,103.2,216.9z"/>
</g>
</svg>
