<?xml version="1.0" encoding="utf-8"?>
<!-- Generator: Adobe Illustrator 24.2.1, SVG Export Plug-In . SVG Version: 6.00 Build 0)  -->
<svg version="1.1" id="Layer_1" xmlns="http://www.w3.org/2000/svg" xmlns:xlink="http://www.w3.org/1999/xlink" x="0px" y="0px"
	 viewBox="0 0 502.8 160.6" enable-background="new 0 0 502.8 160.6" xml:space="preserve">
<g>
	<path fill="#1B4E8D" d="M93,47.6c-1.6-3.7-4.1-6.7-7.5-8.9s-7.2-3.3-11.5-3.3c-4.2,0-8.1,1-11.6,2.9c-1.9,1-3.7,2.3-5.4,3.9v-5.5
		H45.7v56.2H57V71.7c0-8.2,0.5-11.8,0.9-13.4c0.9-3.4,2.7-6.3,5.5-8.7c2.7-2.3,5.9-3.4,9.3-3.4c3,0,5.3,0.7,7.1,2.1
		c1.7,1.4,3,3.5,3.6,6.4c0.3,1.2,0.7,4.2,0.7,11.3v26.9h11.2V64C95.3,56.7,94.5,51.2,93,47.6"/>
	<path fill="#1B4E8D" d="M188.9,52.8c0.3-0.3,0.6-0.5,0.7-0.7c3.4-3.4,7.6-5.1,12.9-5.1l0.1-1.7V47c4.7,0,8.8,1.8,12.6,5.5l0.2,0.1
		c0.1,0.1,0.3,0.3,0.6,0.5c3.1,3.1,4.6,7,4.6,12s-1.7,9.1-5.3,12.6s-7.7,5.3-12.9,5.3c-5.4,0-9.5-1.5-12.8-4.6
		c-1.7-1.6-3-3.7-4.1-6.3c-1-2.4-1.5-4.8-1.4-7C184.1,60.1,185.7,56,188.9,52.8 M222.8,44.9c-5.6-5.6-12.5-8.5-20.4-8.5
		c-6.6,0-12.7,2.1-18,6.4v-5.9h-10.9v98.2h10.9V87.7c5,4.1,11.1,6.1,18,6.1c3.9,0,7.6-0.7,11.1-2.1c5.3-2.2,9.7-5.7,12.9-10.5
		s4.9-10.2,4.9-16C231.3,57.4,228.5,50.5,222.8,44.9"/>
	<path fill="#1B4E8D" d="M22,59.1c-4.7-2.4-6.5-4-7.3-4.9c-0.9-1.1-1.4-2.1-1.4-3.3s0.5-2.3,1.6-3.3s2.4-1.5,4-1.5
		c2.7,0,5.7,1.5,8.8,4.5l1.7,1.6l7.5-7.8l-1.7-1.6c-5.2-5.1-10.6-7.6-15.9-7.6c-4.7,0-8.6,1.5-11.7,4.5s-4.7,6.9-4.7,11.4
		c0,3.5,1,6.6,3,9.4c1.9,2.6,5.4,5.3,10.3,7.8c5,2.6,6.9,4.1,7.6,4.9c0.9,1.1,1.3,2.2,1.3,3.6c0,1.7-0.6,3-2,4.3S19.9,83,17.9,83
		c-3.1,0-6.1-1.7-9-5l-1.7-2L0,84.2l1.2,1.5c2,2.6,4.5,4.6,7.5,6s6.2,2.2,9.5,2.2c5.1,0,9.4-1.7,12.8-5.1s5.2-7.6,5.2-12.4
		c0-3.5-1-6.7-3.1-9.5C30.9,64.5,27.2,61.8,22,59.1"/>
	<path fill="#1B4E8D" d="M151.8,65.2c0,3.5-0.8,6.7-2.3,9.4s-3.8,4.9-6.6,6.5c-5.7,3.2-12.7,3.2-18.1,0c-2.8-1.6-5-3.9-6.7-6.9
		c-1.7-2.9-2.5-6.1-2.5-9.3s0.8-6.4,2.5-9.3c1.6-2.9,3.9-5.2,6.6-6.8c2.8-1.6,5.8-2.4,9.1-2.4c5.1,0,9.4,1.8,12.8,5.3
		C150,55.4,151.8,59.9,151.8,65.2 M151.3,36.8v5.6c-1.7-1.6-3.6-2.9-5.6-4c-3.8-2-8-3-12.6-3c-7.9,0-14.8,2.9-20.5,8.6
		c-5.6,5.7-8.5,12.7-8.5,20.7c0,8.2,2.8,15.2,8.4,20.9c5.6,5.7,12.4,8.6,20.4,8.6c4.4,0,8.6-0.9,12.4-2.8c2.1-1,4.1-2.4,6-4v5.5
		h11.2V36.7L151.3,36.8L151.3,36.8L151.3,36.8z"/>
	<polygon fill="#1B4E8D" points="251.9,81.2 251.9,0 240.5,0 240.5,92.1 277.1,92.1 277.1,81.2 	"/>
	<path fill="#1B4E8D" d="M477.2,77.2l-1.2,1.2c-3.6,3.6-7.8,5.3-12.9,5.3c-5.2,0-9.3-1.7-12.6-5.1c-3.3-3.4-4.9-7.6-4.9-12.9
		s1.5-9.5,4.4-12.5c0.3-0.3,0.6-0.5,0.6-0.6c3.3-3.3,7.4-4.9,12.4-4.9c5.1,0,9.2,1.7,12.6,5.1l1.2,1.2l7.5-7.8l-1-1.1
		c-5.6-5.3-12.4-8.1-20.1-8.1c-7.9,0-14.7,2.8-20.3,8.4c-5.6,5.6-8.4,12.4-8.4,20.3c0,8,2.8,14.8,8.3,20.3s12.3,8.3,20.3,8.3
		c7.9,0,14.8-2.8,20.5-8.3l1.2-1.2L477.2,77.2z"/>
	<path fill="#1B4E8D" d="M389,145.7c-3.4,3.4-7.3,5.1-12,5.1s-8.8-1.9-12.6-5.8c-3.4-3.4-5.1-7.5-5.1-12.6c0-5.2,1.7-9.5,5.1-12.9
		l0.4-0.4c3.4-3.4,7.5-5.1,12.3-5.1s8.9,1.8,12.6,5.5c3.3,3.3,4.9,7.5,4.9,12.9C394.5,137.7,392.7,142,389,145.7 M359.3,65.8
		c0-5.2,1.7-9.5,5.1-12.9l0.4-0.4c3.4-3.4,7.5-5.1,12.3-5.1s8.9,1.8,12.6,5.5c3.3,3.3,4.9,7.5,4.9,12.9c0,5.3-1.8,9.6-5.5,13.3
		c-3.4,3.4-7.3,5.1-12,5.1s-8.8-1.9-12.6-5.8C360.9,74.9,359.3,70.8,359.3,65.8 M322.4,79c-3.4,3.4-7.3,5.1-12,5.1
		c-4.6,0-8.8-1.9-12.6-5.8c-3.4-3.4-5.1-7.5-5.1-12.6c0-5.2,1.7-9.4,5.1-12.9l0.4-0.4c3.4-3.4,7.5-5.1,12.3-5.1s8.9,1.8,12.6,5.5
		c3.3,3.3,4.9,7.5,4.9,12.9C327.9,71,326.1,75.3,322.4,79 M382.4,104V93.9c5.6-1,10.6-3.6,14.9-7.8c5.5-5.3,8.3-12.2,8.3-20.4
		s-2.7-15.1-8.3-20.6c-5.5-5.5-12.3-8.3-20.3-8.3s-14.8,2.8-20.4,8.4c-4.2,4.2-6.9,9.2-7.9,14.8h-10.1c-1-5.8-3.6-10.8-7.8-15
		c-5.5-5.5-12.3-8.3-20.3-8.3s-14.8,2.8-20.4,8.4s-8.4,12.5-8.4,20.4c0,3.7,0.7,7.4,2.1,10.9c1.5,3.8,3.6,7,6.2,9.4
		c5.8,5.5,12.7,8.3,20.6,8.3s14.7-2.8,20.3-8.3c4.2-4.1,6.8-9.1,7.8-14.9h10.1c0.4,1.9,0.9,3.7,1.6,5.5c1.5,3.8,3.6,7,6.2,9.4
		c4.3,4.1,9.3,6.7,14.9,7.7v10.2c-5.6,1.1-10.5,3.7-14.7,7.9c-5.6,5.6-8.4,12.5-8.4,20.4c0,3.7,0.7,7.4,2.1,10.9
		c1.5,3.8,3.6,7,6.2,9.4c5.8,5.5,12.7,8.3,20.6,8.3c7.8,0,14.7-2.8,20.3-8.3c5.5-5.3,8.3-12.2,8.3-20.4s-2.7-15.1-8.3-20.6
		C393.1,107.6,388.1,105,382.4,104"/>
	<rect x="414.2" y="38.4" fill="#1B4E8D" width="11.7" height="53.7"/>
	<path fill="#1B4E8D" d="M420.1,34.1c2.1,0,4-0.8,5.5-2.3s2.3-3.4,2.3-5.5s-0.8-4-2.3-5.5s-3.4-2.3-5.5-2.3s-4,0.8-5.5,2.3
		s-2.3,3.4-2.3,5.5s0.8,4,2.3,5.5S418,34.1,420.1,34.1"/>
	<g>
		<path fill="#1B4E8D" d="M496.3,39.1c3.6,0,6.5,2.9,6.5,6.5s-2.9,6.5-6.5,6.5s-6.5-2.9-6.5-6.5S492.7,39.1,496.3,39.1z M496.3,51.5
			c3.2,0,5.9-2.6,5.9-5.9c0-3.2-2.6-5.9-5.9-5.9s-5.9,2.6-5.9,5.9S493,51.5,496.3,51.5z M497.3,46.2l1.7,2.5c0.1,0.2,0,0.3-0.2,0.3
			h-0.7c-0.2,0-0.3-0.1-0.4-0.2l-1.6-2.4h-1v2.4c0,0.1-0.1,0.2-0.2,0.2h-0.8c-0.2,0-0.2,0-0.2-0.2v-6.2c0-0.1,0.1-0.2,0.2-0.2h2.3
			c1.1,0,2.3,0.4,2.3,2C498.8,45.4,498.1,46,497.3,46.2z M496.4,45.3c0.8,0,1.2-0.3,1.2-1s-0.4-1-1.2-1h-1.3v2H496.4z"/>
	</g>
</g>
</svg>
